<?xml version="1.0" encoding="UTF-8" standalone="no"?>
<!-- Generator: Adobe Illustrator 23.0.4, SVG Export Plug-In . SVG Version: 6.00 Build 0)  -->

<svg
   xmlns:dc="http://purl.org/dc/elements/1.1/"
   xmlns:cc="http://creativecommons.org/ns#"
   xmlns:rdf="http://www.w3.org/1999/02/22-rdf-syntax-ns#"
   xmlns:svg="http://www.w3.org/2000/svg"
   xmlns="http://www.w3.org/2000/svg"
   xmlns:sodipodi="http://sodipodi.sourceforge.net/DTD/sodipodi-0.dtd"
   xmlns:inkscape="http://www.inkscape.org/namespaces/inkscape"
   version="1.1"
   id="svg2816"
   x="0px"
   y="0px"
   viewBox="0 0 360.3 318.2"
   style="enable-background:new 0 0 360.3 318.2;"
   xml:space="preserve"
   sodipodi:docname="work.svg"
   inkscape:version="0.92.2 5c3e80d, 2017-08-06"><defs
     id="defs10" /><sodipodi:namedview
     bordercolor="#666666"
     borderopacity="1"
     fit-margin-bottom="0.1"
     fit-margin-left="0.1"
     fit-margin-right="0.1"
     fit-margin-top="0.1"
     gridtolerance="10"
     guidetolerance="10"
     id="namedview79"
     inkscape:current-layer="svg2816"
     inkscape:cx="36.389181"
     inkscape:cy="125.70184"
     inkscape:guide-bbox="true"
     inkscape:pageopacity="0"
     inkscape:pageshadow="2"
     inkscape:window-height="1172"
     inkscape:window-maximized="1"
     inkscape:window-width="2304"
     inkscape:window-x="0"
     inkscape:window-y="1"
     inkscape:zoom="2.8284273"
     objecttolerance="10"
     pagecolor="#ffffff"
     showgrid="false"
     showguides="true" /><path
     d="M 357,282.3 200.8,12 C 196.5,4.6 188.7,0.1 180.2,0.1 c 0,0 -0.1,0 -0.1,0 0,0 -0.1,0 -0.1,0 -8.5,0 -16.3,4.5 -20.6,11.9 L 3.3,282.3 c -4.3,7.4 -4.3,16.5 0,23.9 4.2,7.4 12.1,11.9 20.7,11.9 h 312.3 c 8.6,0 16.5,-4.5 20.7,-11.9 4.2,-7.4 4.2,-16.5 0,-23.9 z m -319.2,4 142.3,-246.5 142.4,246.5 z"
     id="path5"
     style="clip-rule:evenodd;fill:#cccccc;fill-rule:evenodd"
     inkscape:connector-curvature="0" /><path
     d="m 271,253.4 c -2,-1.3 -5,-2 -6.7,-3.8 -1.9,-2 -19.3,-22.1 -19.5,-22.5 -0.3,-0.3 -2.5,-2.7 -5.3,-1.5 -1,-1.1 -2,-2.6 -2,-2.6 0,0 -4.9,-30.1 -10.2,-42.9 1.3,-0.7 2.9,-2 2.9,-2 0,0 4.1,3.7 7.6,0 3.6,-3.9 3.3,-3.8 2.6,-5.5 -0.5,-1.7 -0.7,-2.2 -2,-2.9 -1.1,-0.7 -3.1,-2.7 -3.2,-6.1 0.1,-3.4 -1.4,-12.8 -2.9,-16.9 -1.7,-3.8 -2.2,-8.3 -8.5,-11.1 -9.7,-4.2 -22.8,-6.8 -32.4,-4.4 -2.5,0.7 -11,7 -11.7,7.3 -0.9,0.5 -4.2,1.9 -3.8,-1.2 0.5,-6.4 -5.1,-17.9 -15.2,-17.8 -12.3,-0.1 -14.2,11.8 -14.3,13.1 0.1,6.2 4.6,14 17.2,15.2 0,0 2.4,0.4 2.3,2 0,1.5 0,1 -0.9,1.8 -0.6,0.9 -7.1,7 -7.3,8.5 -0.7,7.7 1,17.4 2.6,23 0,0 1.8,4.7 0.3,8.2 -1.4,3.3 -7.8,19.3 -8.5,20.4 -1.4,2.7 -2,5 -1.2,8.2 -0.5,0.5 -11.1,7.3 -11.1,7.3 v 0 c 0,0 -1.7,-3.9 -5.8,-5.3 -4.2,-1 -7.6,-0.5 -11.1,-7 l -2.9,-5 c 0,0 -0.8,-1.9 -3.8,-2.6 -3.2,-0.5 -7.4,-1.7 -9,-1.5 -2.3,0.1 -4.1,-0.6 -7,2.9 -2.4,2.8 -40.6,69.1 -40.6,69.1 h 91.6 c 0,0 2.4,-0.3 1.8,-2.3 -0.6,-2.2 -11.7,-41.4 -11.7,-41.4 l 12.8,-8.2 c 0,0 0.9,1.7 4.7,0 3.7,-1.7 5,-2.6 5,-2.6 0,0 2.2,-0.2 2,-4.7 1.3,-0.9 14.9,-9.3 14.9,-9.3 0,0 -4.7,11.8 -5.3,16.9 -0.3,5.4 -2,40.8 -2,40.8 0,0 0.1,2.6 -1.8,3.2 -1.8,0.4 -9.9,2.6 -9.9,2.6 0,0 -2.4,0.5 -2.3,2.3 -0.1,1.8 0.8,2.4 1.8,2.3 1.1,0.1 26.8,0 26.8,0 0,0 2.7,0.5 3.2,-2.9 0.4,-3.5 5.3,-38.8 5.3,-38.8 0,0 -2.1,-0.5 -2,-2.6 -0.1,-2.2 -0.1,-3.9 0.6,-4.7 0.7,-0.9 8.5,-9.9 13.7,-22.5 0.9,-1.8 1.5,-0.1 1.8,0.3 0.1,0.5 10.2,28 11.4,28.9 1.2,1.2 28.5,23.3 29.2,23.6 0.5,0.5 2.3,1.7 2.3,5.5 -0.1,3.9 -1.6,7 -2.6,8.2 -1.1,1.3 -2.8,3 -2.9,3.8 0.1,0.8 0.9,1.3 1.5,1.2 0.7,0.1 4.2,0.1 4.7,0 0.2,0.1 4.9,0.5 8.2,-5.3 3.3,-5.7 9.3,-15.8 9.3,-15.8 0,0 1.1,-1.8 -0.7,-2.9 z m -82.9,-62.2 -3.8,7.9 v 0 c 0,0 -16.2,10.2 -17.5,11.1 -1.3,0.7 -2,-0.1 -0.9,-1.8 7.4,-9.9 10.1,-21.6 8.5,-30.9 -0.3,-1.6 0.9,-1.6 1.8,-1.2 2.6,1.6 7.7,6 12,12.3 0.5,0.5 -0.1,2.6 -0.1,2.6 z M 224.3,174 c -1.2,-2.9 -13.8,-22 -16.3,-25.7 -1.7,-2.3 0.9,-2.3 0.9,-2.3 0,0 7.3,-0.1 8.8,0 1.6,0.3 2.6,2 2.6,2 l 6.7,24.5 z"
     id="path7"
     style="fill:#cccccc"
     inkscape:connector-curvature="0" /><metadata
     id="metadata4530"><rdf:RDF><cc:Work
         rdf:about=""><dc:title></dc:title></cc:Work></rdf:RDF></metadata></svg>